<svg width="14" height="16" viewBox="0 0 14 16" fill="none" xmlns="http://www.w3.org/2000/svg">
<path d="M7.09212 0C5.64548 0 4.25809 0.574674 3.23517 1.5976C2.21224 2.62053 1.63757 4.00792 1.63757 5.45455V9.7091L0.430291 11.5273C0.285586 11.7504 0.203507 12.0083 0.192645 12.274C0.181782 12.5397 0.242534 12.8035 0.368544 13.0376C0.494554 13.2718 0.681189 13.4678 0.908919 13.6051C1.13665 13.7425 1.3971 13.816 1.66302 13.8182H12.5212C12.7888 13.8173 13.0513 13.7441 13.2806 13.6062C13.51 13.4683 13.6978 13.2709 13.8242 13.035C13.9506 12.7991 14.0107 12.5334 13.9984 12.266C13.986 11.9987 13.9015 11.7396 13.7539 11.5164L12.5467 9.7091V5.45455C12.5467 4.00792 11.972 2.62053 10.9491 1.5976C9.92614 0.574674 8.53876 0 7.09212 0Z" fill="#AFB1B0"/>
<path d="M7.09282 16C7.54358 15.9994 7.98312 15.8593 8.35102 15.5989C8.71892 15.3384 8.99711 14.9704 9.14737 14.5454H5.03827C5.18852 14.9704 5.46672 15.3384 5.83462 15.5989C6.20251 15.8593 6.64205 15.9994 7.09282 16Z" fill="#AFB1B0"/>
</svg>
