<svg width="18" height="20" viewBox="0 0 18 20" fill="none" xmlns="http://www.w3.org/2000/svg">
<path d="M11.5 6.66662H16.95C16.6591 5.89568 16.2071 5.19568 15.6242 4.6133L12.7209 1.7083C12.1378 1.12607 11.4376 0.674395 10.6667 0.383301V5.8333C10.6667 6.2935 11.0398 6.66662 11.5 6.66662Z" fill="#F4A417"/>
<path d="M17.3133 8.33332H11.5C10.1193 8.33332 9 7.21402 9 5.83332V0.02C8.86582 0.0108203 8.73168 0 8.59582 0H4.83332C2.53328 0.00277344 0.669414 1.86664 0.666679 4.16668V15.8334C0.669414 18.1334 2.53328 19.9973 4.83332 20H13.1666C15.4667 19.9973 17.3305 18.1334 17.3333 15.8333V8.7375C17.3333 8.60168 17.3225 8.4675 17.3133 8.33332Z" fill="#F4A417"/>
</svg>
